# xmcd
#
# Track frame offsets:
#	150
#	14358
#	27297
#	48700
#	61812
#	76976
#	89641
#	101725
#	117872
#	135233
#	147788
#	161552
#	176145
#	190168
#
# Disc length: 2822 seconds
#
# Revision: 1
# Processed by: cddbd v1.5.2PL0 Copyright (c) Steve Scherf et al.
# Submitted via: audiograbber 1.83.01
#
DISCID=b90b040e
DTITLE=R and B Ballads - Golden Legends
DYEAR=2005
DGENRE=Ballad
TTITLE0=Stand By Me
TTITLE1=When a Man Loves a Woman
TTITLE2=Turn Off the Lights
TTITLE3=Oh Girl
TTITLE4=La La Means I Love You
TTITLE5=Ooh Baby Baby
TTITLE6=Smoke Gets in your Eyes
TTITLE7=If You Don't Know Me By Now
TTITLE8=Rainy Night in Georgia
TTITLE9=Let It Be Me
TTITLE10=Tell It Like It Is
TTITLE11=When Something Is Wrong With My Baby
TTITLE12=Spanish Harlem
TTITLE13=Have You Seen Her
EXTD=
EXTT0=
EXTT1=
EXTT2=
EXTT3=
EXTT4=
EXTT5=
EXTT6=
EXTT7=
EXTT8=
EXTT9=
EXTT10=
EXTT11=
EXTT12=
EXTT13=
PLAYORDER=
